<svg xmlns="http://www.w3.org/2000/svg" viewBox="0 0 600 300" width="600" height="300">
  <path d="M 148.65,40.00 L 146.60,40.92 L 144.56,41.83 L 142.54,42.75 L 140.54,43.67 L 138.59,44.58 L 136.68,45.50 L 134.82,46.42 L 133.03,47.33 L 131.31,48.25 L 129.68,49.17 L 128.13,50.08 L 126.67,51.00 L 125.32,51.92 L 124.07,52.83 L 122.94,53.75 L 121.93,54.67 L 121.04,55.58 L 120.28,56.50 L 119.65,57.42 L 119.16,58.33 L 118.80,59.25 L 118.58,60.17 L 118.50,61.08 L 118.56,62.00 L 118.76,62.92 L 119.09,63.83 L 119.57,64.75 L 120.18,65.67 L 120.92,66.58 L 121.79,67.50 L 122.78,68.42 L 123.89,69.33 L 125.12,70.25 L 126.46,71.17 L 127.90,72.08 L 129.43,73.00 L 131.06,73.92 L 132.76,74.83 L 134.54,75.75 L 136.39,76.67 L 138.29,77.58 L 140.24,78.50 L 142.23,79.42 L 144.25,80.33 L 146.28,81.25 L 148.33,82.17 L 149.68,83.08 L 150.89,84.00 L 152.09,84.92 L 153.27,85.83 L 154.43,86.75 L 155.57,87.67 L 156.67,88.58 L 157.74,89.50 L 158.76,90.42 L 159.74,91.33 L 160.66,92.25 L 161.53,93.17 L 162.34,94.08 L 163.09,95.00 L 163.77,95.92 L 164.38,96.83 L 164.92,97.75 L 165.38,98.67 L 165.76,99.58 L 166.07,100.50 L 166.29,101.42 L 166.44,102.33 L 166.50,103.25 L 166.48,104.17 L 166.37,105.08 L 166.18,106.00 L 165.92,106.92 L 165.57,107.83 L 165.14,108.75 L 164.64,109.67 L 164.06,110.58 L 163.41,111.50 L 162.70,112.42 L 161.92,113.33 L 161.07,114.25 L 160.17,115.17 L 159.22,116.08 L 158.21,117.00 L 157.17,117.92 L 156.08,118.83 L 154.96,119.75 L 153.81,120.67 L 152.64,121.58 L 151.44,122.50 L 150.24,123.42 L 149.02,124.33 L 147.23,125.25 L 145.18,126.17 L 143.16,127.08 L 141.15,128.00 L 139.18,128.92 L 137.26,129.83 L 135.39,130.75 L 133.57,131.67 L 131.83,132.58 L 130.17,133.50 L 128.59,134.42 L 127.11,135.33 L 125.72,136.25 L 124.45,137.17 L 123.28,138.08 L 122.23,139.00 L 121.30,139.92 L 120.50,140.83 L 119.83,141.75 L 119.30,142.67 L 118.90,143.58 L 118.63,144.50 L 118.51,145.42 L 118.53,146.33 L 118.68,147.25 L 118.98,148.17 L 119.41,149.08 L 119.98,150.00 L 120.68,150.92 L 121.51,151.83 L 122.46,152.75 L 123.54,153.67 L 124.73,154.58 L 126.03,155.50 L 127.44,156.42 L 128.95,157.33 L 130.55,158.25 L 132.23,159.17 L 133.99,160.08 L 135.81,161.00 L 137.70,161.92 L 139.63,162.83 L 141.61,163.75 L 143.62,164.67 L 145.66,165.58 L 147.70,166.50 L 149.30,167.42 L 150.52,168.33 L 151.72,169.25 L 152.91,170.17 L 154.08,171.08 L 155.22,172.00 L 156.33,172.92 L 157.41,173.83 L 158.45,174.75 L 159.44,175.67 L 160.38,176.58 L 161.27,177.50 L 162.10,178.42 L 162.87,179.33 L 163.57,180.25 L 164.20,181.17 L 164.76,182.08 L 165.25,183.00 L 165.66,183.92 L 165.98,184.83 L 166.23,185.75 L 166.40,186.67 L 166.49,187.58 L 166.49,188.50 L 166.41,189.42 L 166.25,190.33 L 166.01,191.25 L 165.68,192.17 L 165.28,193.08 L 164.80,194.00 L 164.25,194.92 L 163.62,195.83 L 162.92,196.75 L 162.16,197.67 L 161.34,198.58 L 160.45,199.50 L 159.52,200.42 L 158.53,201.33 L 157.49,202.25 L 156.42,203.17 L 155.31,204.08 L 154.17,205.00 L 153.00,205.92 L 151.81,206.83 L 150.61,207.75 L 149.40,208.67 L 147.86,209.58 L 145.81,210.50 L 143.78,211.42 L 141.77,212.33 L 139.78,213.25 L 137.85,214.17 L 135.96,215.08 L 134.13,216.00 L 132.36,216.92 L 130.67,217.83 L 129.07,218.75 L 127.56,219.67 L 126.14,220.58 L 124.83,221.50 L 123.63,222.42 L 122.54,223.33 L 121.57,224.25 L 120.74,225.17 L 120.02,226.08 L 119.45,227.00 L 119.00,227.92 L 118.70,228.83 L 118.53,229.75 L 118.51,230.67 L 118.62,231.58 L 118.87,232.50 L 119.26,233.42 L 119.79,234.33 L 120.45,235.25 L 121.24,236.17 L 122.15,237.08 L 123.19,238.00 L 124.35,238.92 L 125.62,239.83 L 127.00,240.75 L 128.48,241.67 L 130.05,242.58 L 131.70,243.50 L 133.44,244.42 L 135.24,245.33 L 137.11,246.25 L 139.03,247.17 L 141.00,248.08 L 143.00,249.00 L 145.03,249.92 L 147.07,250.83 L 148.93,251.75 L 150.14,252.67 L 151.35,253.58 L 152.54,254.50 L 153.72,255.42 L 154.87,256.33 L 156.00,257.25 L 157.09,258.17 L 158.14,259.08 L 159.14,260.00 L 169.07,260.00 L 167.37,259.08 L 165.60,258.17 L 163.76,257.25 L 161.86,256.33 L 159.91,255.42 L 157.93,254.50 L 155.91,253.58 L 153.87,252.67 L 151.82,251.75 L 150.42,250.83 L 149.21,249.92 L 148.01,249.00 L 146.82,248.08 L 145.66,247.17 L 144.52,246.25 L 143.41,245.33 L 142.34,244.42 L 141.32,243.50 L 140.34,242.58 L 139.41,241.67 L 138.53,240.75 L 137.72,239.83 L 136.96,238.92 L 136.28,238.00 L 135.66,237.08 L 135.12,236.17 L 134.65,235.25 L 134.26,234.33 L 133.95,233.42 L 133.72,232.50 L 133.57,231.58 L 133.50,230.67 L 133.52,229.75 L 133.62,228.83 L 133.80,227.92 L 134.06,227.00 L 134.40,226.08 L 134.82,225.17 L 135.32,224.25 L 135.89,223.33 L 136.53,222.42 L 137.25,221.50 L 138.02,220.58 L 138.86,219.67 L 139.76,218.75 L 140.71,217.83 L 141.71,216.92 L 142.75,216.00 L 143.83,215.08 L 144.95,214.17 L 146.10,213.25 L 147.27,212.33 L 148.47,211.42 L 149.67,210.50 L 150.88,209.58 L 152.61,208.67 L 154.66,207.75 L 156.69,206.83 L 158.69,205.92 L 160.67,205.00 L 162.60,204.08 L 164.47,203.17 L 166.29,202.25 L 168.03,201.33 L 169.70,200.42 L 171.29,199.50 L 172.78,198.58 L 174.17,197.67 L 175.46,196.75 L 176.64,195.83 L 177.69,194.92 L 178.63,194.00 L 179.44,193.08 L 180.12,192.17 L 180.67,191.25 L 181.08,190.33 L 181.35,189.42 L 181.49,188.50 L 181.48,187.58 L 181.33,186.67 L 181.05,185.75 L 180.63,184.83 L 180.07,183.92 L 179.38,183.00 L 178.56,182.08 L 177.62,181.17 L 176.55,180.25 L 175.37,179.33 L 174.07,178.42 L 172.67,177.50 L 171.17,176.58 L 169.58,175.67 L 167.90,174.75 L 166.15,173.83 L 164.33,172.92 L 162.45,172.00 L 160.52,171.08 L 158.54,170.17 L 156.53,169.25 L 154.50,168.33 L 152.45,167.42 L 150.79,166.50 L 149.58,165.58 L 148.37,164.67 L 147.18,163.75 L 146.01,162.83 L 144.87,161.92 L 143.75,161.00 L 142.67,160.08 L 141.63,159.17 L 140.63,158.25 L 139.69,157.33 L 138.79,156.42 L 137.96,155.50 L 137.19,154.58 L 136.48,153.67 L 135.84,152.75 L 135.28,151.83 L 134.79,150.92 L 134.37,150.00 L 134.04,149.08 L 133.78,148.17 L 133.61,147.25 L 133.52,146.33 L 133.51,145.42 L 133.58,144.50 L 133.73,143.58 L 133.97,142.67 L 134.29,141.75 L 134.69,140.83 L 135.16,139.92 L 135.71,139.00 L 136.33,138.08 L 137.02,137.17 L 137.78,136.25 L 138.60,135.33 L 139.48,134.42 L 140.41,133.50 L 141.39,132.58 L 142.42,131.67 L 143.50,130.75 L 144.61,129.83 L 145.75,128.92 L 146.91,128.00 L 148.10,127.08 L 149.30,126.17 L 150.51,125.25 L 151.98,124.33 L 154.03,123.42 L 156.07,122.50 L 158.08,121.58 L 160.06,120.67 L 162.01,119.75 L 163.90,118.83 L 165.74,117.92 L 167.51,117.00 L 169.20,116.08 L 170.81,115.17 L 172.33,114.25 L 173.76,113.33 L 175.08,112.42 L 176.29,111.50 L 177.38,110.58 L 178.36,109.67 L 179.20,108.75 L 179.93,107.83 L 180.51,106.92 L 180.97,106.00 L 181.28,105.08 L 181.46,104.17 L 181.50,103.25 L 181.39,102.33 L 181.15,101.42 L 180.77,100.50 L 180.26,99.58 L 179.61,98.67 L 178.83,97.75 L 177.92,96.83 L 176.89,95.92 L 175.74,95.00 L 174.48,94.08 L 173.11,93.17 L 171.64,92.25 L 170.08,91.33 L 168.43,90.42 L 166.70,89.50 L 164.90,88.58 L 163.03,87.67 L 161.12,86.75 L 159.15,85.83 L 157.15,84.92 L 155.13,84.00 L 153.09,83.08 L 151.16,82.17 L 149.95,81.25 L 148.74,80.33 L 147.55,79.42 L 146.37,78.50 L 145.22,77.58 L 144.09,76.67 L 143.00,75.75 L 141.94,74.83 L 140.93,73.92 L 139.97,73.00 L 139.06,72.08 L 138.21,71.17 L 137.42,70.25 L 136.69,69.33 L 136.03,68.42 L 135.45,67.50 L 134.93,66.58 L 134.49,65.67 L 134.13,64.75 L 133.85,63.83 L 133.65,62.92 L 133.54,62.00 L 133.50,61.08 L 133.55,60.17 L 133.68,59.25 L 133.89,58.33 L 134.18,57.42 L 134.56,56.50 L 135.01,55.58 L 135.53,54.67 L 136.13,53.75 L 136.80,52.83 L 137.54,51.92 L 138.34,51.00 L 139.20,50.08 L 140.12,49.17 L 141.09,48.25 L 142.10,47.33 L 143.16,46.42 L 144.26,45.50 L 145.39,44.58 L 146.55,43.67 L 147.73,42.75 L 148.93,41.83 L 150.14,40.92 L 151.35,40.00 Z" fill="#48515A"/>
  <path d="M 148.65,40.00 L 149.86,40.92 L 151.07,41.83 L 152.27,42.75 L 153.45,43.67 L 154.61,44.58 L 155.74,45.50 L 156.84,46.42 L 157.90,47.33 L 158.91,48.25 L 159.88,49.17 L 160.80,50.08 L 161.66,51.00 L 162.46,51.92 L 163.20,52.83 L 163.87,53.75 L 164.47,54.67 L 164.99,55.58 L 165.44,56.50 L 165.82,57.42 L 166.11,58.33 L 166.32,59.25 L 166.45,60.17 L 166.50,61.08 L 166.46,62.00 L 166.35,62.92 L 166.15,63.83 L 165.87,64.75 L 165.51,65.67 L 165.07,66.58 L 164.55,67.50 L 163.97,68.42 L 163.31,69.33 L 162.58,70.25 L 161.79,71.17 L 160.94,72.08 L 160.03,73.00 L 159.07,73.92 L 158.06,74.83 L 157.00,75.75 L 155.91,76.67 L 154.78,77.58 L 153.63,78.50 L 152.45,79.42 L 151.26,80.33 L 150.05,81.25 L 148.84,82.17 L 146.91,83.08 L 144.87,84.00 L 142.85,84.92 L 140.85,85.83 L 138.88,86.75 L 136.97,87.67 L 135.10,88.58 L 133.30,89.50 L 131.57,90.42 L 129.92,91.33 L 128.36,92.25 L 126.89,93.17 L 125.52,94.08 L 124.26,95.00 L 123.11,95.92 L 122.08,96.83 L 121.17,97.75 L 120.39,98.67 L 119.74,99.58 L 119.23,100.50 L 118.85,101.42 L 118.61,102.33 L 118.50,103.25 L 118.54,104.17 L 118.72,105.08 L 119.03,106.00 L 119.49,106.92 L 120.07,107.83 L 120.80,108.75 L 121.64,109.67 L 122.62,110.58 L 123.71,111.50 L 124.92,112.42 L 126.24,113.33 L 127.67,114.25 L 129.19,115.17 L 130.80,116.08 L 132.49,117.00 L 134.26,117.92 L 136.10,118.83 L 137.99,119.75 L 139.94,120.67 L 141.92,121.58 L 143.93,122.50 L 145.97,123.42 L 148.02,124.33 L 149.49,125.25 L 150.70,126.17 L 151.90,127.08 L 153.09,128.00 L 154.25,128.92 L 155.39,129.83 L 156.50,130.75 L 157.58,131.67 L 158.61,132.58 L 159.59,133.50 L 160.52,134.42 L 161.40,135.33 L 162.22,136.25 L 162.98,137.17 L 163.67,138.08 L 164.29,139.00 L 164.84,139.92 L 165.31,140.83 L 165.71,141.75 L 166.03,142.67 L 166.27,143.58 L 166.42,144.50 L 166.49,145.42 L 166.48,146.33 L 166.39,147.25 L 166.22,148.17 L 165.96,149.08 L 165.63,150.00 L 165.21,150.92 L 164.72,151.83 L 164.16,152.75 L 163.52,153.67 L 162.81,154.58 L 162.04,155.50 L 161.21,156.42 L 160.31,157.33 L 159.37,158.25 L 158.37,159.17 L 157.33,160.08 L 156.25,161.00 L 155.13,161.92 L 153.99,162.83 L 152.82,163.75 L 151.63,164.67 L 150.42,165.58 L 149.21,166.50 L 147.55,167.42 L 145.50,168.33 L 143.47,169.25 L 141.46,170.17 L 139.48,171.08 L 137.55,172.00 L 135.67,172.92 L 133.85,173.83 L 132.10,174.75 L 130.42,175.67 L 128.83,176.58 L 127.33,177.50 L 125.93,178.42 L 124.63,179.33 L 123.45,180.25 L 122.38,181.17 L 121.44,182.08 L 120.62,183.00 L 119.93,183.92 L 119.37,184.83 L 118.95,185.75 L 118.67,186.67 L 118.52,187.58 L 118.51,188.50 L 118.65,189.42 L 118.92,190.33 L 119.33,191.25 L 119.88,192.17 L 120.56,193.08 L 121.37,194.00 L 122.31,194.92 L 123.36,195.83 L 124.54,196.75 L 125.83,197.67 L 127.22,198.58 L 128.71,199.50 L 130.30,200.42 L 131.97,201.33 L 133.71,202.25 L 135.53,203.17 L 137.40,204.08 L 139.33,205.00 L 141.31,205.92 L 143.31,206.83 L 145.34,207.75 L 147.39,208.67 L 149.12,209.58 L 150.33,210.50 L 151.53,211.42 L 152.73,212.33 L 153.90,213.25 L 155.05,214.17 L 156.17,215.08 L 157.25,216.00 L 158.29,216.92 L 159.29,217.83 L 160.24,218.75 L 161.14,219.67 L 161.98,220.58 L 162.75,221.50 L 163.47,222.42 L 164.11,223.33 L 164.68,224.25 L 165.18,225.17 L 165.60,226.08 L 165.94,227.00 L 166.20,227.92 L 166.38,228.83 L 166.48,229.75 L 166.50,230.67 L 166.43,231.58 L 166.28,232.50 L 166.05,233.42 L 165.74,234.33 L 165.35,235.25 L 164.88,236.17 L 164.34,237.08 L 163.72,238.00 L 163.04,238.92 L 162.28,239.83 L 161.47,240.75 L 160.59,241.67 L 159.66,242.58 L 158.68,243.50 L 157.66,244.42 L 156.59,245.33 L 155.48,246.25 L 154.34,247.17 L 153.18,248.08 L 151.99,249.00 L 150.79,249.92 L 149.58,250.83 L 148.18,251.75 L 146.13,252.67 L 144.09,253.58 L 142.07,254.50 L 140.09,255.42 L 138.14,256.33 L 136.24,257.25 L 134.40,258.17 L 132.63,259.08 L 130.93,260.00 L 140.86,260.00 L 141.86,259.08 L 142.91,258.17 L 144.00,257.25 L 145.13,256.33 L 146.28,255.42 L 147.46,254.50 L 148.65,253.58 L 149.86,252.67 L 151.07,251.75 L 152.93,250.83 L 154.97,249.92 L 157.00,249.00 L 159.00,248.08 L 160.97,247.17 L 162.89,246.25 L 164.76,245.33 L 166.56,244.42 L 168.30,243.50 L 169.95,242.58 L 171.52,241.67 L 173.00,240.75 L 174.38,239.83 L 175.65,238.92 L 176.81,238.00 L 177.85,237.08 L 178.76,236.17 L 179.55,235.25 L 180.21,234.33 L 180.74,233.42 L 181.13,232.50 L 181.38,231.58 L 181.49,230.67 L 181.47,229.75 L 181.30,228.83 L 181.00,227.92 L 180.55,227.00 L 179.98,226.08 L 179.26,225.17 L 178.43,224.25 L 177.46,223.33 L 176.37,222.42 L 175.17,221.50 L 173.86,220.58 L 172.44,219.67 L 170.93,218.75 L 169.33,217.83 L 167.64,216.92 L 165.87,216.00 L 164.04,215.08 L 162.15,214.17 L 160.22,213.25 L 158.23,212.33 L 156.22,211.42 L 154.19,210.50 L 152.14,209.58 L 150.60,208.67 L 149.39,207.75 L 148.19,206.83 L 147.00,205.92 L 145.83,205.00 L 144.69,204.08 L 143.58,203.17 L 142.51,202.25 L 141.47,201.33 L 140.48,200.42 L 139.55,199.50 L 138.66,198.58 L 137.84,197.67 L 137.08,196.75 L 136.38,195.83 L 135.75,194.92 L 135.20,194.00 L 134.72,193.08 L 134.32,192.17 L 133.99,191.25 L 133.75,190.33 L 133.59,189.42 L 133.51,188.50 L 133.51,187.58 L 133.60,186.67 L 133.77,185.75 L 134.02,184.83 L 134.34,183.92 L 134.75,183.00 L 135.24,182.08 L 135.80,181.17 L 136.43,180.25 L 137.13,179.33 L 137.90,178.42 L 138.73,177.50 L 139.62,176.58 L 140.56,175.67 L 141.55,174.75 L 142.59,173.83 L 143.67,172.92 L 144.78,172.00 L 145.92,171.08 L 147.09,170.17 L 148.28,169.25 L 149.48,168.33 L 150.70,167.42 L 152.30,166.50 L 154.34,165.58 L 156.38,164.67 L 158.39,163.75 L 160.37,162.83 L 162.30,161.92 L 164.19,161.00 L 166.01,160.08 L 167.77,159.17 L 169.45,158.25 L 171.05,157.33 L 172.56,156.42 L 173.97,155.50 L 175.27,154.58 L 176.46,153.67 L 177.54,152.75 L 178.49,151.83 L 179.32,150.92 L 180.02,150.00 L 180.59,149.08 L 181.02,148.17 L 181.32,147.25 L 181.47,146.33 L 181.49,145.42 L 181.37,144.50 L 181.10,143.58 L 180.70,142.67 L 180.17,141.75 L 179.50,140.83 L 178.70,139.92 L 177.77,139.00 L 176.72,138.08 L 175.55,137.17 L 174.28,136.25 L 172.89,135.33 L 171.41,134.42 L 169.83,133.50 L 168.17,132.58 L 166.43,131.67 L 164.61,130.75 L 162.74,129.83 L 160.82,128.92 L 158.85,128.00 L 156.84,127.08 L 154.82,126.17 L 152.77,125.25 L 150.98,124.33 L 149.76,123.42 L 148.56,122.50 L 147.36,121.58 L 146.19,120.67 L 145.04,119.75 L 143.92,118.83 L 142.83,117.92 L 141.79,117.00 L 140.78,116.08 L 139.83,115.17 L 138.93,114.25 L 138.08,113.33 L 137.30,112.42 L 136.59,111.50 L 135.94,110.58 L 135.36,109.67 L 134.86,108.75 L 134.43,107.83 L 134.08,106.92 L 133.82,106.00 L 133.63,105.08 L 133.52,104.17 L 133.50,103.25 L 133.56,102.33 L 133.71,101.42 L 133.93,100.50 L 134.24,99.58 L 134.62,98.67 L 135.08,97.75 L 135.62,96.83 L 136.23,95.92 L 136.91,95.00 L 137.66,94.08 L 138.47,93.17 L 139.34,92.25 L 140.26,91.33 L 141.24,90.42 L 142.26,89.50 L 143.33,88.58 L 144.43,87.67 L 145.57,86.75 L 146.73,85.83 L 147.91,84.92 L 149.11,84.00 L 150.32,83.08 L 151.67,82.17 L 153.72,81.25 L 155.75,80.33 L 157.77,79.42 L 159.76,78.50 L 161.71,77.58 L 163.61,76.67 L 165.46,75.75 L 167.24,74.83 L 168.94,73.92 L 170.57,73.00 L 172.10,72.08 L 173.54,71.17 L 174.88,70.25 L 176.11,69.33 L 177.22,68.42 L 178.21,67.50 L 179.08,66.58 L 179.82,65.67 L 180.43,64.75 L 180.91,63.83 L 181.24,62.92 L 181.44,62.00 L 181.50,61.08 L 181.42,60.17 L 181.20,59.25 L 180.84,58.33 L 180.35,57.42 L 179.72,56.50 L 178.96,55.58 L 178.07,54.67 L 177.06,53.75 L 175.93,52.83 L 174.68,51.92 L 173.33,51.00 L 171.87,50.08 L 170.32,49.17 L 168.69,48.25 L 166.97,47.33 L 165.18,46.42 L 163.32,45.50 L 161.41,44.58 L 159.46,43.67 L 157.46,42.75 L 155.44,41.83 L 153.40,40.92 L 151.35,40.00 Z" fill="#48515A"/>
  <rect x="132.72" y="51.50" width="34.56" height="4.50" rx="2.25" fill="white"/>
  <rect x="132.72" y="106.50" width="34.56" height="4.50" rx="2.25" fill="white"/>
  <rect x="132.72" y="189.00" width="34.56" height="4.50" rx="2.25" fill="white"/>
  <path d="M 340.0,250.0 L 340.0,64.0" stroke="#48515A" stroke-width="9" stroke-linecap="round" fill="none"/>
  <path d="M 331.0,76.0 L 340.0,50.0 L 349.0,76.0" stroke="#48515A" stroke-width="9" stroke-linecap="round" stroke-linejoin="round" fill="none"/>
  <path d="M 340.0,250.0 L 506.0,250.0" stroke="#48515A" stroke-width="9" stroke-linecap="round" fill="none"/>
  <path d="M 494.0,241.0 L 520.0,250.0 L 494.0,259.0" stroke="#48515A" stroke-width="9" stroke-linecap="round" stroke-linejoin="round" fill="none"/>
  <path d="M 358.0,80.0 L 386.0,112.0 L 418.0,146.0 L 456.0,172.0 L 500.0,190.0" stroke="#48515A" stroke-width="7" stroke-linecap="round" stroke-linejoin="round" fill="none" opacity="0.55"/>
  <circle cx="358.0" cy="80.0" r="11" fill="#48515A"/>
  <circle cx="386.0" cy="112.0" r="9" fill="#48515A"/>
  <circle cx="418.0" cy="146.0" r="13" fill="#48515A"/>
  <circle cx="456.0" cy="172.0" r="9" fill="#48515A"/>
  <circle cx="500.0" cy="190.0" r="11" fill="#48515A"/>
  <circle cx="404.0" cy="168.0" r="6.5" fill="none" stroke="#48515A" stroke-width="4.5" opacity="0.55"/>
  <circle cx="440.0" cy="200.0" r="6.5" fill="none" stroke="#48515A" stroke-width="4.5" opacity="0.55"/>
  <circle cx="480.0" cy="158.0" r="6.5" fill="none" stroke="#48515A" stroke-width="4.5" opacity="0.55"/>
</svg>